<svg xmlns="http://www.w3.org/2000/svg" viewBox="0 0 500 500"><g id="freepik--fresh-drink--inject-88"><path d="M120.2,105.63l-.39-.92A74.07,74.07,0,0,1,148.45,99v1A73,73,0,0,0,120.2,105.63Z" style="fill:#E4125D"></path><path d="M108.86,111.57l-.54-.84c2.11-1.35,4.31-2.61,6.56-3.75l.45.89C113.12,109,110.94,110.24,108.86,111.57Z" style="fill:#E4125D"></path><path d="M192.54,117.91a2.91,2.91,0,0,1,.38,4.16l-2.61,3-83.79,96.44-2.61,3a2.89,2.89,0,0,1-4.17.21,70.81,70.81,0,0,1,92.8-106.81Z" style="fill:#E4125D"></path><path d="M190.31,125.07l-83.79,96.44a63.88,63.88,0,0,1,83.79-96.44Z" style="fill:#fff"></path><path d="M102.46,133.36a60.87,60.87,0,0,0,6,85.89l79.86-91.92A60.89,60.89,0,0,0,102.46,133.36Z" style="fill:#E4125D;opacity:0.1"></path><path d="M109.88,208.21a51.44,51.44,0,0,1-12.54-25.13,2.38,2.38,0,0,1,2.16-2.82l35-2.45a2.36,2.36,0,0,1,2,3.9l-23,26.47A2.37,2.37,0,0,1,109.88,208.21Z" style="fill:#E4125D;opacity:0.30000000000000004"></path><path d="M151,121.35a51.43,51.43,0,0,1,26.63,8.9,2.38,2.38,0,0,1,.47,3.52l-23,26.47a2.36,2.36,0,0,1-4.14-1.38l-2.46-35A2.38,2.38,0,0,1,151,121.35Z" style="fill:#E4125D;opacity:0.30000000000000004"></path><path d="M96.47,170.73a51.53,51.53,0,0,1,8.91-26.63,2.37,2.37,0,0,1,3.52-.47l26.47,23a2.36,2.36,0,0,1-1.38,4.14l-35,2.45A2.39,2.39,0,0,1,96.47,170.73Z" style="fill:#E4125D;opacity:0.30000000000000004"></path><path d="M113.5,134.75a51.44,51.44,0,0,1,25.12-12.53,2.37,2.37,0,0,1,2.83,2.15l2.45,35a2.36,2.36,0,0,1-3.9,1.94l-26.48-23A2.37,2.37,0,0,1,113.5,134.75Z" style="fill:#E4125D;opacity:0.30000000000000004"></path><path d="M213.54,116.53,241.9,366.8l7.66-.86L221.41,117.59a5.74,5.74,0,0,1,8.1-5.86l64.08,29.44,3.22-7L231,103.92A12.35,12.35,0,0,0,213.54,116.53Z" style="fill:#E4125D"></path><path d="M213.54,116.53,241.9,366.8l7.66-.86L221.41,117.59a5.74,5.74,0,0,1,8.1-5.86l64.08,29.44,3.22-7L231,103.92A12.35,12.35,0,0,0,213.54,116.53Z" style="fill:#fff;opacity:0.4"></path><path d="M275,145.78,122,156.52a4.9,4.9,0,0,0-4.52,5.49l31.23,250a4.89,4.89,0,0,0,5.19,4.28l125.76-8.83a4.9,4.9,0,0,0,4.55-5l-4-251.87A4.89,4.89,0,0,0,275,145.78Z" style="fill:#E4125D;opacity:0.30000000000000004"></path><path d="M264.25,187.11a8.3,8.3,0,0,1,8.67,8.18L275.75,373a15.38,15.38,0,0,1-14.31,15.6l-92.1,6.47A15.39,15.39,0,0,1,153,381.65L131.21,207.21a8.31,8.31,0,0,1,7.79-9.34c.57,0,1.16-.06,1.78-.11,12.14-.85,12-2.84,24.14-3.7s12.28,1.15,24.42.29,12-2.84,24.14-3.7,12.28,1.15,24.42.3,12-2.85,24.13-3.7C262.81,187.19,263.55,187.15,264.25,187.11Z" style="fill:#E4125D;opacity:0.4"></path><rect x="153.12" y="223.86" width="37.37" height="37.37" rx="5.56" transform="translate(-123.97 213.17) rotate(-49.02)" style="fill:#fff;opacity:0.2"></rect><rect x="199.81" y="210.11" width="37.37" height="37.37" rx="5.56" transform="matrix(-0.62, -0.78, 0.78, -0.62, 175.68, 542.25)" style="fill:#fff;opacity:0.2"></rect><rect x="215.35" y="298.57" width="37.37" height="37.37" rx="5.56" transform="translate(-148.24 413.64) rotate(-67.74)" style="fill:#fff;opacity:0.2"></rect><rect x="164.03" y="277.56" width="37.37" height="37.37" rx="5.56" transform="translate(-160.67 353.1) rotate(-67.74)" style="fill:#fff;opacity:0.2"></rect><rect x="170.84" y="334.89" width="37.37" height="37.37" rx="5.56" transform="translate(79.47 -32.2) rotate(12.27)" style="fill:#fff;opacity:0.2"></rect></g></svg>