<svg xmlns="http://www.w3.org/2000/svg" viewBox="0 0 500 500"><g id="freepik--background-complete--inject-6"><rect x="69.22" y="235.28" width="1" height="4.57" style="fill:#ebebeb"></rect><rect x="63.24" y="237.72" width="1" height="4.57" transform="translate(-151.05 115.38) rotate(-45)" style="fill:#ebebeb"></rect><rect x="58.95" y="245.45" width="4.57" height="1" style="fill:#ebebeb"></rect><rect x="61.39" y="251.43" width="4.57" height="1" transform="translate(-159.49 118.81) rotate(-45)" style="fill:#ebebeb"></rect><rect x="69.12" y="252.14" width="1" height="4.57" style="fill:#ebebeb"></rect><rect x="75.1" y="249.71" width="1" height="4.57" transform="translate(-156.04 127.25) rotate(-45)" style="fill:#ebebeb"></rect><rect x="75.81" y="245.54" width="4.57" height="1" style="fill:#ebebeb"></rect><rect x="73.38" y="239.57" width="4.57" height="1" transform="translate(-147.6 123.83) rotate(-45)" style="fill:#ebebeb"></rect><rect x="429.88" y="196.61" width="1" height="4.57" style="fill:#ebebeb"></rect><rect x="423.9" y="199.05" width="1" height="4.57" transform="translate(-18.05 359.1) rotate(-45)" style="fill:#ebebeb"></rect><rect x="419.62" y="206.78" width="4.57" height="1" style="fill:#ebebeb"></rect><rect x="422.05" y="212.75" width="4.57" height="1" transform="translate(-26.51 362.51) rotate(-45)" style="fill:#ebebeb"></rect><rect x="429.79" y="213.47" width="1" height="4.57" style="fill:#ebebeb"></rect><rect x="435.76" y="211.04" width="1" height="4.57" transform="translate(-23.05 371) rotate(-45)" style="fill:#ebebeb"></rect><rect x="436.48" y="206.87" width="4.57" height="1" style="fill:#ebebeb"></rect><rect x="434.04" y="200.9" width="4.57" height="1" transform="translate(-14.6 367.55) rotate(-45)" style="fill:#ebebeb"></rect><rect x="308.42" y="85.56" width="1" height="4.57" style="fill:#ebebeb"></rect><rect x="302.44" y="87.99" width="1" height="4.57" transform="translate(24.89 240.65) rotate(-45)" style="fill:#ebebeb"></rect><rect x="298.15" y="95.73" width="4.57" height="1" style="fill:#ebebeb"></rect><rect x="300.59" y="101.7" width="4.57" height="1" transform="translate(16.44 244.1) rotate(-45)" style="fill:#ebebeb"></rect><rect x="308.32" y="102.42" width="1" height="4.57" style="fill:#ebebeb"></rect><rect x="314.3" y="99.98" width="1" height="4.57" transform="translate(19.9 252.58) rotate(-45.01)" style="fill:#ebebeb"></rect><rect x="315.01" y="95.82" width="4.57" height="1" style="fill:#ebebeb"></rect><rect x="312.58" y="89.84" width="4.57" height="1" transform="translate(28.35 249.12) rotate(-45)" style="fill:#ebebeb"></rect><rect x="252.92" y="58.93" width="1" height="2.52" style="fill:#ebebeb"></rect><rect x="249.62" y="60.27" width="1" height="2.52" transform="translate(29.76 194.92) rotate(-45.01)" style="fill:#ebebeb"></rect><rect x="247.48" y="64.32" width="2.52" height="1" style="fill:#ebebeb"></rect><rect x="248.82" y="67.62" width="2.52" height="1" transform="translate(25.08 196.79) rotate(-45)" style="fill:#ebebeb"></rect><rect x="252.87" y="68.24" width="1" height="2.52" style="fill:#ebebeb"></rect><rect x="256.17" y="66.89" width="1" height="2.52" transform="translate(26.96 201.42) rotate(-44.99)" style="fill:#ebebeb"></rect><rect x="256.79" y="64.37" width="2.52" height="1" style="fill:#ebebeb"></rect><rect x="255.44" y="61.07" width="2.52" height="1" transform="translate(31.64 199.54) rotate(-45)" style="fill:#ebebeb"></rect><rect x="207.27" y="157.88" width="1" height="2.52" style="fill:#ebebeb"></rect><rect x="203.97" y="159.23" width="1" height="2.52" transform="translate(-53.59 191.59) rotate(-45)" style="fill:#ebebeb"></rect><rect x="201.83" y="163.27" width="2.52" height="1" style="fill:#ebebeb"></rect><rect x="203.17" y="166.57" width="2.52" height="1" transform="translate(-58.26 193.47) rotate(-45)" style="fill:#ebebeb"></rect><rect x="207.22" y="167.19" width="1" height="2.52" style="fill:#ebebeb"></rect><rect x="210.51" y="165.84" width="1" height="2.52" transform="translate(-56.36 198.15) rotate(-45)" style="fill:#ebebeb"></rect><rect x="211.13" y="163.32" width="2.52" height="1" style="fill:#ebebeb"></rect><rect x="209.79" y="160.02" width="2.52" height="1" transform="translate(-51.69 196.23) rotate(-45)" style="fill:#ebebeb"></rect><rect x="399.17" y="137.89" width="1" height="2.52" style="fill:#ebebeb"></rect><rect x="395.87" y="139.23" width="1" height="2.52" transform="translate(16.73 321.38) rotate(-44.99)" style="fill:#ebebeb"></rect><rect x="393.73" y="143.28" width="2.52" height="1" style="fill:#ebebeb"></rect><rect x="395.07" y="146.57" width="2.52" height="1" transform="translate(12.1 323.36) rotate(-45)" style="fill:#ebebeb"></rect><rect x="399.12" y="147.19" width="1" height="2.52" style="fill:#ebebeb"></rect><rect x="402.41" y="145.85" width="1" height="2.52" transform="translate(14.01 328.03) rotate(-45.01)" style="fill:#ebebeb"></rect><rect x="403.03" y="143.33" width="2.52" height="1" style="fill:#ebebeb"></rect><rect x="401.69" y="140.03" width="2.52" height="1" transform="translate(18.65 326.09) rotate(-45)" style="fill:#ebebeb"></rect><rect x="120.04" y="120.42" width="1" height="2.52" style="fill:#ebebeb"></rect><rect x="116.75" y="121.77" width="1" height="2.52" transform="translate(-52.66 118.94) rotate(-45)" style="fill:#ebebeb"></rect><rect x="114.6" y="125.81" width="2.52" height="1" style="fill:#ebebeb"></rect><rect x="115.95" y="129.11" width="2.52" height="1" transform="translate(-57.32 120.84) rotate(-45)" style="fill:#ebebeb"></rect><rect x="119.99" y="129.73" width="1" height="2.52" style="fill:#ebebeb"></rect><rect x="123.29" y="128.39" width="1" height="2.52" transform="translate(-55.42 125.51) rotate(-45)" style="fill:#ebebeb"></rect><rect x="123.91" y="125.87" width="2.52" height="1" style="fill:#ebebeb"></rect><rect x="122.57" y="122.57" width="2.52" height="1" transform="translate(-50.75 123.62) rotate(-45)" style="fill:#ebebeb"></rect><g style="opacity:0.6000000000000001"><polygon points="218.54 304.06 194.94 475.61 75.08 475.61 51.48 304.06 218.54 304.06" style="fill:#dbdbdb"></polygon><polygon points="204.5 316.79 184.87 463.25 85.15 463.25 65.52 316.79 204.5 316.79" style="fill:#ebebeb"></polygon><path d="M106,425.61a53.3,53.3,0,1,0,63.42-85.67L167,343.31l-27.69,37.38-.06.12-1.34,1.77,0,.05-.13.17,0,0-.11.15-.05.06-2.08,2.81L108.5,422.24Z" style="fill:#c7c7c7"></path><path d="M108.5,422.24A49.11,49.11,0,1,0,167,343.31l-27.69,37.38-.06.12-1.34,1.77,0,.05-.13.17,0,0-.11.15-.05.06-2.08,2.81Z" style="fill:#fff;opacity:0.5"></path><path d="M165.19,351.8c-2.65,2-27.28,31.14-27.28,31.14s37.19-9,40.19-10.49,1.62-8.3-1.56-13.38S167.85,349.78,165.19,351.8Z" style="fill:#c7c7c7;opacity:0.5"></path><path d="M179.37,380.18c-3.32-.44-41.46,2.76-41.46,2.76s32.77,19.81,35.94,20.89,7-4.72,8.4-10.54S182.68,380.62,179.37,380.18Z" style="fill:#c7c7c7;opacity:0.5"></path><path d="M169.25,410.18c-2-2.65-31.34-27.24-31.34-27.24s9.15,37.05,10.64,40,8.34,1.64,13.43-1.51S171.29,412.82,169.25,410.18Z" style="fill:#c7c7c7;opacity:0.5"></path><path d="M140.78,424.22c.43-3.3-2.87-41.28-2.87-41.28s-19.82,32.58-20.9,35.73,4.76,7,10.6,8.39S140.35,427.52,140.78,424.22Z" style="fill:#c7c7c7;opacity:0.5"></path><path d="M134,393.74c.82.28.85,6.83-2,5.88S133.16,393.46,134,393.74Z" style="fill:#fff;opacity:0.5"></path><path d="M135.43,407.3c.87-.07,3.43,6,.46,6.18S134.56,407.36,135.43,407.3Z" style="fill:#fff;opacity:0.5"></path><path d="M150.27,387.18c.27-.82,6.82-.87,5.88,2S150,388,150.27,387.18Z" style="fill:#fff;opacity:0.5"></path><path d="M155.13,373.5c-.56-.67,2.85-6.26,4.76-4S155.69,374.17,155.13,373.5Z" style="fill:#fff;opacity:0.5"></path><path d="M151.09,403.22c.68-.53,6.16,3.06,3.81,4.89S150.4,403.76,151.09,403.22Z" style="fill:#fff;opacity:0.5"></path><polygon points="195.93 380.78 184.87 463.25 85.15 463.25 74.09 380.78 195.93 380.78" style="fill:#c7c7c7;opacity:0.6000000000000001"></polygon><path d="M91,410.89c5.73,7.84,7.3,20.09,3.64,29.11-5.76-7.84-7.26-20.1-3.64-29.11Z" style="fill:#fff"></path><path d="M77.65,304.06c5.23,16.37,8.06,33.14,10.28,50.08,2,17,3.41,33.92,2.35,51.08C85,388.85,82.2,372.07,80,355.13c-2-17-3.4-33.92-2.35-51.07Z" style="fill:#fff"></path></g><path d="M423.3,222.61a53.3,53.3,0,1,0-60-88.11l2.35,3.47,26.18,38.46.09.09,1.24,1.85,0,0,.12.18,0,0,.11.15,0,.07,2,2.89,25.48,37.43Z" style="fill:#ebebeb"></path><path d="M420.94,219.16A49.11,49.11,0,1,0,365.66,138l26.18,38.46.09.09,1.24,1.85,0,0,.12.18,0,0,.11.15,0,.07,2,2.89Z" style="fill:#fff;opacity:0.8"></path><path d="M373.11,142.43c1,3.17,20.41,36,20.41,36s3.73-38.09,3.33-41.4-7.31-4.27-13.15-2.94S372.07,139.26,373.11,142.43Z" style="fill:#ebebeb;opacity:0.5"></path><path d="M404.57,138.4c-1.51,3-11.05,40-11.05,40s29.5-24.42,31.56-27-2.14-8.21-7.18-11.41S406.08,135.41,404.57,138.4Z" style="fill:#ebebeb;opacity:0.5"></path><path d="M429.56,157.83c-3.17,1-36,20.62-36,20.62s38,3.56,41.3,3.14,4.29-7.33,3-13.18S432.73,156.77,429.56,157.83Z" style="fill:#ebebeb;opacity:0.5"></path><path d="M433.44,189.34c-3-1.5-39.92-10.89-39.92-10.89s24.23,29.45,26.85,31.5,8.19-2.17,11.41-7.25S436.41,190.84,433.44,189.34Z" style="fill:#ebebeb;opacity:0.5"></path><path d="M402.42,185.71c.53-.69,6.73,1.44,4.9,3.8S401.89,186.4,402.42,185.71Z" style="fill:#fff;opacity:0.5"></path><path d="M415.7,188.82c.22-.84,6.76-1.28,6,1.6S415.47,189.66,415.7,188.82Z" style="fill:#fff;opacity:0.5"></path><path d="M401.59,168.18c-.69-.53,1.43-6.73,3.79-4.91S402.28,168.71,401.59,168.18Z" style="fill:#fff;opacity:0.5"></path><path d="M390.27,159.08c-.81.31-5-4.76-2.18-5.81S391.09,158.77,390.27,159.08Z" style="fill:#fff;opacity:0.5"></path><path d="M417,172.69c-.28-.82,4.92-4.81,5.87-2S417.28,173.51,417,172.69Z" style="fill:#fff;opacity:0.5"></path><path d="M76.3,224.3a53.3,53.3,0,1,0,103,27.44l-4-1.08-45-12-.12,0-2.15-.58h0l-.21-.06h0l-.19-.05-.07,0-3.38-.9L80.34,225.37Z" style="fill:#ebebeb"></path><path d="M80.34,225.37a49.12,49.12,0,1,0,94.92,25.29l-45-12-.12,0-2.15-.58h0l-.21-.06h0l-.19-.05-.07,0-3.38-.9Z" style="fill:#fff;opacity:0.8"></path><path d="M166.71,252.15c-2.86-1.72-39-13.91-39-13.91s22.09,31.26,24.56,33.51,8.31-1.55,11.86-6.38S169.57,253.87,166.71,252.15Z" style="fill:#ebebeb;opacity:0.5"></path><path d="M145.54,275.77c-.81-3.24-17.83-37.53-17.83-37.53s-6.35,37.76-6.19,41.11,7,4.81,12.89,3.93S146.35,279,145.54,275.77Z" style="fill:#ebebeb;opacity:0.5"></path><path d="M113.93,277.41c1.71-2.87,13.78-39.17,13.78-39.17s-31.07,22.15-33.3,24.63,1.55,8.36,6.35,11.93S112.22,280.28,113.93,277.41Z" style="fill:#ebebeb;opacity:0.5"></path><path d="M90.39,256.11c3.23-.82,37.32-17.87,37.32-17.87S90.12,231.8,86.8,232s-4.78,7-3.9,12.94S87.16,256.92,90.39,256.11Z" style="fill:#ebebeb;opacity:0.5"></path><path d="M116.23,238.57c0,.87-6,3.31-6.19.33S116.18,237.7,116.23,238.57Z" style="fill:#fff;opacity:0.5"></path><path d="M104.15,244.9c.38.78-4.28,5.39-5.58,2.71S103.77,244.12,104.15,244.9Z" style="fill:#fff;opacity:0.5"></path><path d="M128.32,251.29c.87,0,3.32,6,.35,6.19S127.45,251.34,128.32,251.29Z" style="fill:#fff;opacity:0.5"></path><path d="M142.83,250.78c.42-.77,6.87.35,5.45,3S142.41,251.54,142.83,250.78Z" style="fill:#fff;opacity:0.5"></path><path d="M113.71,258c.75.44-.58,6.86-3.15,5.34S113,257.52,113.71,258Z" style="fill:#fff;opacity:0.5"></path></g><g id="freepik--Floor--inject-6"><path d="M47.3,475.61c129.86-.61,275.54-.61,405.4,0-129.86.62-275.54.62-405.4,0Z" style="fill:#263238"></path></g><g id="freepik--Sparkles--inject-6"><rect x="148.46" y="138.83" width="1" height="4.64" style="fill:#E4125D"></rect><rect x="152.63" y="143.13" width="4.61" height="1" transform="translate(-56.11 153.37) rotate(-45.47)" style="fill:#E4125D"></rect><rect x="155.15" y="149.17" width="4.57" height="1" style="fill:#E4125D"></rect><rect x="154.5" y="153.44" width="1" height="4.61" transform="translate(-64.71 153.51) rotate(-44.55)" style="fill:#E4125D"></rect><rect x="148.55" y="155.96" width="1" height="4.64" style="fill:#E4125D"></rect><rect x="140.78" y="155.3" width="4.61" height="1" transform="translate(-68.33 148.54) rotate(-45.47)" style="fill:#E4125D"></rect><rect x="138.29" y="149.26" width="4.57" height="1" style="fill:#E4125D"></rect><rect x="142.51" y="141.39" width="1" height="4.61" transform="translate(-59.71 141.63) rotate(-44.55)" style="fill:#E4125D"></rect><rect x="330.08" y="281.44" width="1" height="4.64" style="fill:#E4125D"></rect><rect x="334.25" y="285.74" width="4.61" height="1" transform="translate(-103.52 325.46) rotate(-45.47)" style="fill:#E4125D"></rect><rect x="336.77" y="291.78" width="4.57" height="1" style="fill:#E4125D"></rect><rect x="336.12" y="296.04" width="1" height="4.61" transform="translate(-112.57 321.9) rotate(-44.55)" style="fill:#E4125D"></rect><rect x="330.17" y="298.57" width="1" height="4.64" style="fill:#E4125D"></rect><rect x="322.39" y="297.91" width="4.6" height="1" transform="translate(-115.74 320.64) rotate(-45.47)" style="fill:#E4125D"></rect><rect x="319.91" y="291.87" width="4.57" height="1" style="fill:#E4125D"></rect><rect x="324.13" y="284" width="1" height="4.61" transform="translate(-107.56 310.09) rotate(-44.56)" style="fill:#E4125D"></rect><rect x="157.65" y="248.42" width="1" height="2.56" style="fill:#E4125D"></rect><rect x="160.18" y="250.57" width="2.54" height="1" transform="translate(-130.76 190.13) rotate(-45.48)" style="fill:#E4125D"></rect><rect x="161.57" y="253.9" width="2.52" height="1" style="fill:#E4125D"></rect><rect x="160.99" y="256.48" width="1" height="2.54" transform="translate(-134.43 187.39) rotate(-44.56)" style="fill:#E4125D"></rect><rect x="157.7" y="257.87" width="1" height="2.56" style="fill:#E4125D"></rect><rect x="153.63" y="257.29" width="2.54" height="1" transform="translate(-137.51 187.48) rotate(-45.48)" style="fill:#E4125D"></rect><rect x="152.26" y="253.95" width="2.52" height="1" style="fill:#E4125D"></rect><rect x="154.37" y="249.83" width="1" height="2.54" transform="translate(-131.66 180.82) rotate(-44.55)" style="fill:#E4125D"></rect><rect x="421.64" y="223.27" width="1" height="2.56" style="fill:#E4125D"></rect><rect x="424.17" y="225.41" width="2.54" height="1" transform="translate(-33.94 370.84) rotate(-45.48)" style="fill:#E4125D"></rect><rect x="425.56" y="228.75" width="2.52" height="1" style="fill:#E4125D"></rect><rect x="424.98" y="231.33" width="1" height="2.54" transform="translate(-40.91 365.32) rotate(-44.55)" style="fill:#E4125D"></rect><rect x="421.69" y="232.72" width="1" height="2.56" style="fill:#E4125D"></rect><rect x="417.62" y="232.13" width="2.54" height="1" transform="translate(-40.69 368.18) rotate(-45.48)" style="fill:#E4125D"></rect><rect x="416.25" y="228.8" width="2.52" height="1" style="fill:#E4125D"></rect><rect x="418.36" y="224.68" width="1" height="2.54" transform="translate(-38.15 358.75) rotate(-44.55)" style="fill:#E4125D"></rect><rect x="77.31" y="193.77" width="1" height="2.56" style="fill:#E4125D"></rect><rect x="79.83" y="195.92" width="2.54" height="1" transform="translate(-115.8 116.51) rotate(-45.47)" style="fill:#E4125D"></rect><rect x="81.22" y="199.26" width="2.52" height="1" style="fill:#E4125D"></rect><rect x="80.64" y="201.83" width="1" height="2.54" transform="translate(-119.18 115.31) rotate(-44.56)" style="fill:#E4125D"></rect><rect x="77.36" y="203.23" width="1" height="2.56" style="fill:#E4125D"></rect><rect x="73.29" y="202.64" width="2.54" height="1" transform="translate(-122.56 113.86) rotate(-45.48)" style="fill:#E4125D"></rect><rect x="71.92" y="199.31" width="2.52" height="1" style="fill:#E4125D"></rect><rect x="74.02" y="195.19" width="1" height="2.54" transform="translate(-116.43 108.78) rotate(-44.56)" style="fill:#E4125D"></rect><rect x="335.39" y="153.35" width="1" height="2.56" style="fill:#E4125D"></rect><rect x="337.92" y="155.49" width="2.54" height="1" transform="translate(-9.87 288.43) rotate(-45.47)" style="fill:#E4125D"></rect><rect x="339.31" y="158.83" width="2.52" height="1" style="fill:#E4125D"></rect><rect x="338.73" y="161.41" width="1" height="2.54" transform="translate(-16.65 284.71) rotate(-44.55)" style="fill:#E4125D"></rect><rect x="335.44" y="162.8" width="1" height="2.56" style="fill:#E4125D"></rect><rect x="331.37" y="162.21" width="2.54" height="1" transform="translate(-16.62 285.77) rotate(-45.47)" style="fill:#E4125D"></rect><rect x="330" y="158.88" width="2.52" height="1" style="fill:#E4125D"></rect><rect x="332.11" y="154.76" width="1" height="2.54" transform="translate(-13.88 278.17) rotate(-44.55)" style="fill:#E4125D"></rect></g><g id="freepik--Clock--inject-6"><rect x="292.11" y="431.79" width="13.93" height="33.2" transform="translate(394.5 -82.07) rotate(43.9)" style="fill:#455a64"></rect><rect x="383.68" y="441.24" width="13.93" height="33.2" transform="translate(964.99 637.7) rotate(147.86)" style="fill:#37474f"></rect><rect x="301.53" y="325.89" width="10.69" height="13.39" transform="translate(-141.04 268.1) rotate(-39.11)" style="fill:#455a64"></rect><path d="M324.5,307.15a26.71,26.71,0,0,1,3,4.4L282,348.49a26.15,26.15,0,0,1-3.7-3.8c-.69-.84-1.28-1.67-1.91-2.56a29.8,29.8,0,0,1,46-37.37C323.12,305.56,323.81,306.31,324.5,307.15Z" style="fill:#E4125D"></path><path d="M324.5,307.15a26.71,26.71,0,0,1,3,4.4L282,348.49a26.15,26.15,0,0,1-3.7-3.8c-.69-.84-1.28-1.67-1.91-2.56a29.8,29.8,0,0,1,46-37.37C323.12,305.56,323.81,306.31,324.5,307.15Z" style="fill:#fff;opacity:0.6000000000000001"></path><path d="M274.65,339a29.36,29.36,0,0,0,1.76,3.13c.63.88,1.22,1.71,1.91,2.55a26.15,26.15,0,0,0,3.7,3.8l45.44-36.94a26.49,26.49,0,0,0-3-4.4c-.69-.85-1.38-1.59-2.12-2.38-.25-.25-.49-.49-.75-.71Z" style="fill:#E4125D"></path><rect x="269.8" y="322.48" width="64.59" height="8.46" transform="translate(-138.4 263.75) rotate(-39.11)" style="fill:#E4125D"></rect><rect x="269.8" y="322.48" width="64.59" height="8.46" transform="translate(-138.4 263.75) rotate(-39.11)" style="fill:#fff;opacity:0.6000000000000001"></rect><path d="M285.72,300.37a3.91,3.91,0,1,1-5.5-.57A3.91,3.91,0,0,1,285.72,300.37Z" style="fill:#E4125D"></path><path d="M285.72,300.37a3.91,3.91,0,1,1-5.5-.57A3.91,3.91,0,0,1,285.72,300.37Z" style="fill:#fff;opacity:0.6000000000000001"></path><rect x="412.7" y="337.37" width="10.69" height="13.39" transform="translate(414.73 885.48) rotate(-129.1)" style="fill:#37474f"></rect><path d="M406,315.56a26.68,26.68,0,0,0-3.8,3.7l36.95,45.45a27.13,27.13,0,0,0,4.39-3c.84-.68,1.59-1.37,2.39-2.11a29.8,29.8,0,0,0-37.37-46C407.66,314.29,406.83,314.88,406,315.56Z" style="fill:#E4125D"></path><path d="M406,315.56a26.68,26.68,0,0,0-3.8,3.7l36.95,45.45a27.13,27.13,0,0,0,4.39-3c.84-.68,1.59-1.37,2.39-2.11a29.8,29.8,0,0,0-37.37-46C407.66,314.29,406.83,314.88,406,315.56Z" style="fill:#fff;opacity:0.6000000000000001"></path><path d="M448.28,356.93a27.31,27.31,0,0,1-2.36,2.7c-.8.73-1.55,1.43-2.39,2.11a25.51,25.51,0,0,1-4.4,3l-36.94-45.44a27.78,27.78,0,0,1,3.8-3.7c.85-.69,1.67-1.28,2.56-1.9.29-.19.58-.37.88-.54Z" style="fill:#E4125D"></path><rect x="419.69" y="306.99" width="8.46" height="64.59" transform="translate(-119.04 343.41) rotate(-39.11)" style="fill:#E4125D"></rect><rect x="419.69" y="306.99" width="8.46" height="64.59" transform="translate(-119.04 343.41) rotate(-39.11)" style="fill:#fff;opacity:0.6000000000000001"></rect><path d="M445.34,316.84a3.91,3.91,0,1,0,5.5.57A3.92,3.92,0,0,0,445.34,316.84Z" style="fill:#E4125D"></path><path d="M445.34,316.84a3.91,3.91,0,1,0,5.5.57A3.92,3.92,0,0,0,445.34,316.84Z" style="fill:#fff;opacity:0.6000000000000001"></path><circle cx="363.48" cy="391.91" r="72.42" transform="translate(-160.77 287.66) rotate(-35.91)" style="fill:#37474f"></circle><circle cx="350.93" cy="390.62" r="72.42" transform="translate(-136.87 585) rotate(-69.79)" style="fill:#455a64"></circle><circle cx="349.08" cy="390.43" r="60.87" transform="translate(-109.59 643.24) rotate(-77.06)" style="fill:#fff"></circle><rect x="352.77" y="336.49" width="2.75" height="9.62" transform="translate(36.92 -34.56) rotate(5.89)" style="fill:#263238"></rect><rect x="327.53" y="340.54" width="2.75" height="9.62" transform="translate(-112.37 164.46) rotate(-24.11)" style="fill:#263238"></rect><rect x="307.69" y="356.66" width="2.75" height="9.62" transform="translate(-164.96 399.92) rotate(-54.11)" style="fill:#263238"></rect><rect x="298.57" y="380.54" width="2.75" height="9.62" transform="translate(-114.17 644.15) rotate(-84.11)" style="fill:#263238"></rect><rect x="302.62" y="405.79" width="2.75" height="9.62" transform="translate(53.37 855.78) rotate(-114.11)" style="fill:#263238"></rect><rect x="318.74" y="425.62" width="2.75" height="9.62" transform="matrix(-0.81, -0.59, 0.59, -0.81, 327.1, 966.81)" style="fill:#263238"></rect><rect x="342.63" y="434.74" width="2.75" height="9.62" transform="translate(641.05 912.11) rotate(-174.11)" style="fill:#263238"></rect><rect x="367.87" y="430.69" width="2.75" height="9.62" transform="translate(884.17 682.22) rotate(155.89)" style="fill:#263238"></rect><rect x="387.71" y="414.57" width="2.75" height="9.62" transform="translate(956.94 350.05) rotate(125.89)" style="fill:#263238"></rect><rect x="396.82" y="390.69" width="2.75" height="9.62" transform="translate(832.5 40.01) rotate(95.89)" style="fill:#263238"></rect><rect x="392.78" y="365.44" width="2.75" height="9.62" transform="translate(571.14 -140.75) rotate(65.89)" style="fill:#263238"></rect><rect x="376.65" y="345.61" width="2.75" height="9.62" transform="translate(277.2 -155.09) rotate(35.89)" style="fill:#263238"></rect><polygon points="350.89 388.11 347.77 387.79 352.24 353.23 353.47 353.36 350.89 388.11" style="fill:#E4125D"></polygon><polygon points="348.95 392.25 347.03 389.88 373.8 369.25 374.56 370.17 348.95 392.25" style="fill:#c7c7c7"></polygon><path d="M353.67,390.9a4.62,4.62,0,1,1-4.12-5.07A4.62,4.62,0,0,1,353.67,390.9Z" style="fill:#263238"></path></g><g id="freepik--Character--inject-6"><rect x="322.77" y="120.92" width="3.85" height="179.6" transform="translate(185.19 -150.34) rotate(35.89)" style="fill:#E4125D"></rect><rect x="322.77" y="120.92" width="3.85" height="179.6" transform="translate(185.19 -150.34) rotate(35.89)" style="opacity:0.5"></rect><ellipse cx="300.06" cy="244.76" rx="20.65" ry="18.1" transform="translate(-74.14 344.34) rotate(-54.11)" style="fill:#E4125D"></ellipse><rect x="340.83" y="126.77" width="3.85" height="117.99" transform="translate(173.99 -165.67) rotate(35.89)" style="fill:#E4125D"></rect><rect x="340.83" y="126.77" width="3.85" height="117.99" transform="translate(173.99 -165.67) rotate(35.89)" style="opacity:0.5"></rect><path d="M199.17,153.34a54.89,54.89,0,1,0-73,81.95l2.87-3.21,31.88-35.77.08-.11,1.53-1.7,0,0,.15-.16,0,0,.13-.15,0-.06,2.4-2.69,31-34.81Z" style="fill:#E4125D"></path><path d="M196.31,156.56A50.58,50.58,0,1,0,129,232.08l31.88-35.77.08-.11,1.53-1.7,0,0,.15-.16,0,0,.13-.15,0-.06,2.4-2.69Z" style="fill:#fff;opacity:0.5"></path><path d="M162.49,194.5a1.18,1.18,0,0,1,0-.36l0,0h0c-.08.14-.64.89-1.5,2.07Z" style="fill:#E4125D"></path><path d="M131.6,223.53c2.91-1.83,30.89-29.4,30.89-29.4s-39,5.79-42.2,7-2.44,8.36.35,13.87S128.69,225.35,131.6,223.53Z" style="fill:#E4125D;opacity:0.5"></path><path d="M119.71,193.1c3.36.76,42.78,1,42.78,1s-31.77-23.37-34.92-24.77-7.66,4.18-9.6,10S116.35,192.34,119.71,193.1Z" style="fill:#E4125D;opacity:0.5"></path><path d="M132.87,163.28c1.85,2.9,29.62,30.85,29.62,30.85s-5.94-38.85-7.18-42-8.41-2.45-13.93.3S131,160.37,132.87,163.28Z" style="fill:#E4125D;opacity:0.5"></path><path d="M163.39,151.52c-.75,3.35-.9,42.61-.9,42.61s23.37-31.57,24.76-34.7-4.22-7.65-10.09-9.59S164.14,148.18,163.39,151.52Z" style="fill:#E4125D;opacity:0.5"></path><path d="M165.28,191.37c-1.59,1.57-2.62,2.58-2.77,2.74h0l.36-.05Z" style="fill:#E4125D"></path><path d="M162.83,194.12h-.35l0,0h0s.09.07.19.12Z" style="fill:#E4125D"></path><path d="M162.67,194.3l-.16-.15h0c0,.06,0,.16,0,.32Z" style="fill:#E4125D"></path><path d="M167.51,183.42c-.82-.36-.24-7.08,2.57-5.85S168.33,183.78,167.51,183.42Z" style="fill:#fff;opacity:0.5"></path><path d="M167.3,169.38c-.89,0-3-6.44.1-6.39S168.2,169.39,167.3,169.38Z" style="fill:#fff;opacity:0.5"></path><path d="M150.21,188.63c-.36.82-7.08.26-5.86-2.55S150.57,187.81,150.21,188.63Z" style="fill:#fff;opacity:0.5"></path><path d="M143.94,202.21c.51.74-3.51,6.16-5.25,3.63S143.43,201.47,143.94,202.21Z" style="fill:#fff;opacity:0.5"></path><path d="M150.86,172.1c-.75.49-6-3.71-3.45-5.37S151.61,171.62,150.86,172.1Z" style="fill:#fff;opacity:0.5"></path><g style="opacity:0.6000000000000001"><path d="M337.07,475.61H175.12s3.49-6.82,7.82-8.32,21.11-1.33,37.57-5.65,27.49-19.24,28.1-25.11c.44-4.3-3.49-110.55-8.89-117.28-10.49-13.07-121-127.95-121-127.95H393.44s-110.48,114.88-121,128c-5.4,6.73-9.33,113-8.89,117.28.61,5.87,11.64,20.78,28.1,25.11s33.25,4.15,37.57,5.65S337.07,475.61,337.07,475.61Z" style="fill:#dbdbdb"></path><path d="M368.45,201.93c-15.83,16.86-82.44,87.74-91.07,96.37-9.81,9.81-17,12.63-21.29,12.63s-11.47-2.82-21.28-12.63c-8.63-8.63-75.24-79.51-91.07-96.37Z" style="fill:#ebebeb"></path><path d="M336,236.42c-24.37,25.89-53.16,56.4-58.64,61.88-9.81,9.81-17,12.63-21.29,12.63s-11.47-2.82-21.28-12.63c-5.48-5.48-34.27-36-58.64-61.88Z" style="fill:#E4125D"></path><path d="M225.47,275.63c9.61,3.4,18.68,13.07,21.38,22.92-9.64-3.38-18.65-13.09-21.38-22.92Z" style="fill:#fff"></path><path d="M147,191.49c14.64,11,27.56,23.84,40.08,37.11s24.24,27.18,34.23,42.56c-14.65-11-27.57-23.83-40.08-37.11S157,206.86,147,191.49Z" style="fill:#fff"></path><path d="M248.31,323c2.33,17.71,3.41,36.27,4.25,54.13.65,17.89,1.12,36.45.25,54.31-2.35-17.71-3.41-36.27-4.25-54.14-.64-17.88-1.11-36.45-.25-54.3Z" style="fill:#fff"></path></g><path d="M204.24,74.78c.64,9.78-.24,21.63,4.91,30.39,4,6.85,11.39,11,18.77,13.3,16.26,5.13,38,3.61,47.18-13,3.65-6.62,3-19.5-4.73-23.38-4-2-8.41-2.05-12.71-2.72a17.9,17.9,0,0,1-13.09-8.35c-6.08-9.43-5.9-16.85-8-27.53a7.71,7.71,0,0,0-3.26-5.38,13.74,13.74,0,0,0-6.8-2.84,13.75,13.75,0,0,0-6.68-.36c-4.72,1-8.82,6-12.22,9.11s-4.83,6.3-4.6,11C203.29,61.64,203.81,68.21,204.24,74.78Z" style="fill:#263238"></path><path d="M203.55,79.5c0-9,.15-18,.26-27a0,0,0,1,1,.08,0c.13,7.4.36,14.8.39,22.21s-.44,14.74.22,22c1.5,16.24,18.9,21,32.59,18.67.62-.11.72.89.09,1-12.09,1.66-27-.87-32.14-13.64C202.24,95.71,203.55,86.86,203.55,79.5Z" style="fill:#263238"></path><path d="M235.64,42.75a.14.14,0,0,1,.27,0c1.4,8.87,2.19,19.34,8.13,26.54a22.75,22.75,0,0,0,11.28,7.38c3.49,1,7.06.72,10.63,1,14,1.17,16.17,19.63,7,27.94-.2.18-.5-.15-.32-.33,6.38-6.36,7.56-16.75,1-23.56-5.24-5.47-13.83-2.59-20.43-5.12C239.57,71.35,236.81,55.73,235.64,42.75Z" style="fill:#263238"></path><path d="M351.3,226.11c-2.5.28-69.38-14-71.58-16.19-.84-.81.67-10.67,2.84-22.54.47-2.56-2.56-40.83-2.56-40.83l40.72,3.27,5,46.67s23.15,16.93,25.31,19.56S353.8,225.83,351.3,226.11Z" style="fill:#eb9481"></path><path d="M351.3,226.11c-2.5.28-69.37-14-71.58-16.19-.74-.72.35-8.47,2.1-18.43h0c3.28,2.6,45.09,19.89,56.74,19,4.77-.37-5.52-8.54-6-8.88h0c7,5.21,17,12.76,18.39,14.45C353.17,218.67,353.81,225.83,351.3,226.11Z" style="fill:#263238"></path><path d="M282.31,179.16l42.16,5.73s-5.57-55.84-9.39-75.42c-3-15.23-22.72-22.63-37.61-10.65-19.91,16-28.82,24.62-38.19,33.26l-2.2-1.5-27.48,3.13s2.06,32.73,39.06,38.74c13.38,2.17,30.75-19.58,30.82-19.13C279.76,155,282.31,179.16,282.31,179.16Z" style="fill:#eb9481"></path><path d="M279.49,153.32c0-.2-3.48,4-8.47,8.49l5.52-32.74Z" style="opacity:0.1"></path><path d="M427.47,258.75c-1.56,2-58.65,39.63-61.74,39.69-1.17,0-7.14-8-14.07-17.84-1.5-2.13-36.39-28.72-36.39-28.72l33.57-25.76,39.56,30.11s28.3-4.64,31.69-4.34S429,256.77,427.47,258.75Z" style="fill:#eb9481"></path><path d="M427.46,258.75c-1.55,2-58.64,39.63-61.73,39.69-1,0-5.79-6.19-11.66-14.43h0c4.15-.52,45.8-18.21,53.32-27.15,3.08-3.66-10-2.05-10.52-2h0c8.63-1.34,21-3.17,23.19-3C423.47,252.2,429,256.76,427.46,258.75Z" style="fill:#263238"></path><path d="M377.75,248.29l-30.34,28.89s-73-52.67-73.78-53.85c-2.69-4.07-64.91-20.35-79.27-37-15.21-17.64.07-51.09.07-51.09l40.35-4.47s-.32,24,1.41,25.7c1.15,1.11,57.55,24.24,67.25,32.39C320.39,203.1,377.75,248.29,377.75,248.29Z" style="fill:#eb9481"></path><path d="M272.11,172.6c10.28,4.54,20.53,9.19,30.23,14.9,8.91,6.83,17.42,14.24,26,21.54-9-6.64-17.58-14-26.49-20.7-8.29-5-21-11.13-29.69-15.74Z" style="fill:#263238"></path><path d="M269.36,105.42c-4.94,4.13-10.49,25.84-10.34,35.1s6.82,21.4,8.14,22.84,6.47,9.16,6.47,9.16-14.39,2.48-19.49,9.9-9.92,31.06-10.64,31.82-6.84-5-10.25-6.1-23.45-9.94-31.08-14.52c-22.18-13.3-15.8-40.72-7.74-58.38l42.65-4.66,2.2,1.5s18.14-17.36,20.91-19.3S269.36,105.42,269.36,105.42Z" style="fill:#E4125D"></path><path d="M255.32,122.48a1.93,1.93,0,1,0,1.93,1.93A1.94,1.94,0,0,0,255.32,122.48Zm12.09-15.42-3,2.44a1.9,1.9,0,0,0,1.59.86h.06a23.51,23.51,0,0,1,1.6-2.92A1.82,1.82,0,0,0,267.41,107.06ZM191,155.4a1.93,1.93,0,1,0,1.93,1.93A1.92,1.92,0,0,0,191,155.4Zm21.44,0a1.93,1.93,0,1,0,1.93,1.93A1.93,1.93,0,0,0,212.45,155.4Zm21.44,0a1.93,1.93,0,1,0,1.92,1.93A1.92,1.92,0,0,0,233.89,155.4Zm21.43,0a1.93,1.93,0,1,0,1.93,1.93A1.93,1.93,0,0,0,255.32,155.4Zm-53.59-16a1.93,1.93,0,1,0,1.93,1.92A1.93,1.93,0,0,0,201.73,139.42Zm21.44,0a1.93,1.93,0,1,0,1.92,1.92A1.92,1.92,0,0,0,223.17,139.42Zm21.43,0a1.93,1.93,0,1,0,1.93,1.92A1.92,1.92,0,0,0,244.6,139.42Zm-32.15,48.9a1.93,1.93,0,1,0,1.93,1.92A1.93,1.93,0,0,0,212.45,188.32Zm21.44,0a1.93,1.93,0,1,0,1.92,1.92A1.92,1.92,0,0,0,233.89,188.32Zm-32.16-16a1.93,1.93,0,1,0,1.93,1.93A1.94,1.94,0,0,0,201.73,172.33Zm21.44,0a1.93,1.93,0,1,0,1.92,1.93A1.93,1.93,0,0,0,223.17,172.33Zm21.43,0a1.93,1.93,0,1,0,1.93,1.93A1.93,1.93,0,0,0,244.6,172.33Zm21.44,0a1.93,1.93,0,0,0-1.65,2.91c1.23-.51,2.44-.93,3.55-1.28A1.92,1.92,0,0,0,266,172.33Zm-21.43,32.92a1.93,1.93,0,1,0,0,3.85,1.58,1.58,0,0,0,.38,0h0c.26-1,.55-2.14.86-3.34A1.86,1.86,0,0,0,244.61,205.25Z" style="fill:#fff"></path><g style="opacity:0.1"><path d="M225.07,157.38c3.49.11,7,.37,10.45.71,4.29.53,8.88.71,12.92,2.46,3.74,1.58,8.2,3.73,11.88,5.51,1.55.8,3.12,1.56,4.66,2.39-1.64-.62-3.24-1.3-4.87-1.94-3.48-1.45-8.58-3.6-12-5.06-3.73-1.61-8.65-1.89-12.64-2.6l-10.36-1.47Z"></path><path d="M236.51,153.91c3.05.35,6.3,1.34,8.4,3.66-2.87-1.15-5.74-2-8.4-3.66Z"></path></g><path d="M227.07,88.52C240.81,103.68,264,119.81,274.26,118c7-1.2,18.44-24.66,23.31-34,1.62-3.08-25-13.66-27.82-8.12-4.37,8.59-6.05,12.8-8.11,13.19-2.58.48-8.68-2.92-29.65-10.51C223.13,75.42,221.22,82.06,227.07,88.52Z" style="fill:#eb9481"></path><path d="M297.57,84.07c3.79-7,8.49-17.18,7.58-20.7-1-3.7-4.84-16.56-6.71-19.26S288.54,29,285.62,28.68c-2.33-.25-3.55,5.48.24,11.44,3.33,5.23,4.49,8.68,5.4,10.24s1,8.38-1.35,9.67c-1.36.77-5.69-.33-7.08-2.8s1.11-6.95.16-10.63-5.31-6.51-6.39-5.56-.07,2.5-.74,7.91c-.44,3.48-4.69,9.48-4.68,16a91.58,91.58,0,0,1-1.43,11Z" style="fill:#eb9481"></path><path d="M297,58.26c-1.5,2.47-4.16,4-6.73,5.17s-5.43,1.49-7.82,3a21.87,21.87,0,0,0-4.37,3.47,15.56,15.56,0,0,1,9.19-6.48c3.53-1,7.08-2.51,9.73-5.13Z" style="fill:#263238"></path><g style="opacity:0.6000000000000001"><path d="M302,60.63,279.8,72a3,3,0,0,1,.49-1.69c.49-.51,2.8-1.67,4.76-3.42s2.42-4.57,2.09-5.41c-.25-.62-8.25-14.92-9.46-15.46C275.32,45,252.1,37,252.1,37l37.67-19.3s-7.08,23.52-7.6,26.05c-.27,1.3,6.66,16.15,7,16.7.5.77,3.06,2,5.62,1.47s4.85-1.76,5.55-1.86A3,3,0,0,1,302,60.63Z" style="fill:#dbdbdb"></path><path d="M287.09,20.89c-1,3.43-5.14,17.83-5.72,19.62-.66,2-1.44,2.92-2,3.23s-1.77.41-3.81-.24c-1.79-.58-15.9-5.62-19.26-6.82Z" style="fill:#ebebeb"></path><path d="M285.07,27.9c-1.53,5.26-3.33,11.47-3.7,12.61-.66,2-1.44,2.92-2,3.23s-1.77.41-3.81-.24c-1.13-.37-7.23-2.53-12.39-4.37Z" style="fill:#E4125D"></path><path d="M272.66,41.05a5.6,5.6,0,0,1,4.54,1.64,5.63,5.63,0,0,1-4.54-1.64Z" style="fill:#fff"></path><path d="M256,35a50.27,50.27,0,0,1,8.11,2.27,49.35,49.35,0,0,1,7.68,3.44,50.48,50.48,0,0,1-8.1-2.28A49.83,49.83,0,0,1,256,35Z" style="fill:#fff"></path></g><path d="M282.06,43.23a5.07,5.07,0,0,1-1.39-2.46,2.05,2.05,0,0,1,.15-1.2,2.16,2.16,0,0,1,.37-.54,1,1,0,0,1,.58-.36c.06,0,0-.1,0-.07a2.26,2.26,0,0,1-.37.11,1.43,1.43,0,0,0-.3.16,1.83,1.83,0,0,0-.47.45,2.17,2.17,0,0,0-.36,1.36A3.56,3.56,0,0,0,282,43.29S282.08,43.26,282.06,43.23Z" style="fill:#263238"></path><path d="M304.79,61c.3-4.66-.31-11.78-4-17.5-2.48-3.86-18.65-6.8-20-4.27s.71,4,4,5.88c1.19.68,8.52,2.85,8.62,4.79a59.77,59.77,0,0,1-.46,7.69l9.17.24Z" style="fill:#eb9481"></path><path d="M281.78,38.54c3.26-1.36,7.44-.29,11.41,1.05.07,0,0,.12,0,.09-1-.33-8-1.77-11.39-1.08C281.75,38.61,281.74,38.55,281.78,38.54Z" style="fill:#263238"></path><path d="M305.15,59.94a27.42,27.42,0,0,0-4.35-16.46c-2.48-3.86-17.35-3.35-18.67-.82s1.46,4.85,5.52,6.1c1.31.4,6.62.51,6.71,2.45.14,2.79.3,6.79.3,6.79l7.92,1.23Z" style="fill:#eb9481"></path><path d="M294.76,56.73c0-.74.06-1,.08-1.73s.05-1.48,0-2.21a5.57,5.57,0,0,0-.24-1.91,2.79,2.79,0,0,0-1.23-1.33,10,10,0,0,0-4.08-.9c-1.5-.17-4.43-.8-6-2.21a4.2,4.2,0,0,1-1.07-1.34,2.68,2.68,0,0,1-.33-1.22c.18-1.78,2.13-2.52,3.8-2.84a26.8,26.8,0,0,1,9.53.32c.76.14,1.51.3,2.27.45a6.18,6.18,0,0,1,2.47.92c1.18.85,2.22,3.44,2.55,4.24,0,.06.12,0,.09,0-.39-1-1.1-3.74-3.06-5a7.19,7.19,0,0,0-2.45-.79c-.87-.19-1.74-.37-2.62-.52a33,33,0,0,0-5.16-.51,14,14,0,0,0-5,.62,4.11,4.11,0,0,0-2.68,3.22A3.55,3.55,0,0,0,283,46.6a6.44,6.44,0,0,0,1.5,1.08,29.26,29.26,0,0,0,3.93,1.43c1.32.34,2.75.33,4,.79a2.4,2.4,0,0,1,1.46,1.22,6.28,6.28,0,0,1,.37,1.88,19.48,19.48,0,0,1,.25,3.66C294.53,57,294.74,57,294.76,56.73Z" style="fill:#263238"></path><path d="M305,65.83c.37-2,3.28-7.79,3.48-10.57s-.44-13.41-3.21-15c-3.48-2-4.38,6.25-4.45,9.88s-3.32,7.47-3.32,7.47L304.19,59Z" style="fill:#eb9481"></path><path d="M301.39,44.46c0,1.19,0,2.42-.12,3.61a24.4,24.4,0,0,1-.29,3.42,10.31,10.31,0,0,1-1.32,3.11c-.29.48-.6.94-.93,1.39s-.76.95-1.11,1.45c0,.05-.12,0-.08,0a25.19,25.19,0,0,0,1.6-2.93,14.2,14.2,0,0,0,1.15-3.24c.48-2.24.48-4.55.95-6.79C301.25,44.34,301.39,44.37,301.39,44.46Z" style="fill:#263238"></path><path d="M259,113.76c4.2,1.84,12.54,5.65,16.78,3.16,4.75-3.5,7.82-8.9,11.07-13.77C289,99.78,291,96.33,293,92.88a99.73,99.73,0,0,1-12.28,20.65c-1.81,2-3.86,4.58-6.75,5-5.36.38-10.49-2.21-15-4.75Z" style="fill:#263238"></path><path d="M243,135.11s-56.81,10.25-58.83,9.38c0,0,8.67-28.62,17.79-51.05C211.68,69.41,224.5,76,229,79.85c5.37,4.6,15.93,21.83,16.69,25.17,1.27,5.51-3.38,11.73-3.38,11.73Z" style="fill:#E4125D"></path><path d="M214.38,91.5a1.93,1.93,0,1,1-1.93-1.93A1.93,1.93,0,0,1,214.38,91.5Zm19.51-1.93a1.93,1.93,0,1,0,1.92,1.93A1.92,1.92,0,0,0,233.89,89.57ZM221.37,76.16a1.9,1.9,0,0,0,1.8,1.28A2,2,0,0,0,224.4,77,13.78,13.78,0,0,0,221.37,76.16Zm-30.13,46.35c-.42,1.22-.82,2.4-1.21,3.56a2,2,0,0,0,1,.27,1.93,1.93,0,0,0,1.93-1.93A1.91,1.91,0,0,0,191.24,122.51Zm21.21,0a1.93,1.93,0,1,0,1.93,1.93A1.94,1.94,0,0,0,212.45,122.48Zm21.44,0a1.93,1.93,0,1,0,1.92,1.93A1.93,1.93,0,0,0,233.89,122.48Zm-32.16-16a1.93,1.93,0,1,0,1.93,1.93A1.93,1.93,0,0,0,201.73,106.5Zm21.44,0a1.93,1.93,0,1,0,1.92,1.93A1.92,1.92,0,0,0,223.17,106.5Zm21.44,0a1.93,1.93,0,0,0,0,3.86,1.86,1.86,0,0,0,.91-.23h0A12.18,12.18,0,0,0,246,107,2,2,0,0,0,244.61,106.5Zm-42.87,32.92a1.93,1.93,0,0,0-1.58,3l3.41-.55a1.79,1.79,0,0,0,.09-.57A1.92,1.92,0,0,0,201.74,139.42Z" style="fill:#fff"></path><path d="M227,115.13a42.86,42.86,0,0,1,6.88.4c1.13.18,2.25.41,3.38.67.56.13,1.11.24,1.68.34a6.67,6.67,0,0,0,1.78.15c.05,0,.06.09,0,.09A10.63,10.63,0,0,1,239,117a11.21,11.21,0,0,1-1.63-.14c-1.15-.17-2.3-.39-3.45-.57-2.32-.36-4.64-.73-7-.91C226.84,115.33,226.84,115.13,227,115.13Z" style="fill:#263238"></path><path d="M221.61,118a46.34,46.34,0,0,1,5.59-1c.94-.1,1.88-.14,2.83-.15h1.36c.5,0,1,.09,1.49.1a0,0,0,0,1,0,.09c-.46,0-.93.11-1.4.15l-1.41.13c-.94.09-1.88.19-2.82.26-1.88.16-3.75.34-5.63.56C221.53,118.19,221.52,118,221.61,118Z" style="fill:#263238"></path><path d="M242.74,128.87c-2.56,3.32-5,6.73-8.32,9.4-3.33,1.68-7.08,2.31-10.7,3.06,3.16-1.29,6.43-2.26,9.57-3.55,3.54-2.43,6.13-6.14,9.45-8.91Z" style="opacity:0.1"></path><path d="M212.68,79.37c8.32,0,9.58,33.08-3.64,32.57C195.5,111.41,202.67,79.37,212.68,79.37Z" style="fill:#eb9481"></path><path d="M205.17,85c-13.56,23.41-33.85,70.18-37.51,77.86-2.49,5.22,25.66,18.51,26.82,14.72,1.48-4.86,19.86-59.47,21.1-87.38C216.15,77.3,209.51,77.55,205.17,85Z" style="fill:#eb9481"></path><path d="M195.21,175c-.63,4.73-3.84,14.25-6.23,15.7s-14.94,1.14-21.26,1.14-7.57-1.76-7.47-3.94,13.38-2.59,13.38-2.59-17.72,5.08-22.18,5.91-14.73,3.42-16.22-.28c-.67-1.67,2.15-3.35,2.15-3.35s-4.31,1.26-5-.89c-.78-2.44,2.65-3.78,2.65-3.78s-2.7.55-2.76-1.44c-.14-4.44,16.72-6.63,16.72-6.63s-12.91,6.29-13.32,2.66c-.57-5,25.87-10.51,28.63-12.7a51.9,51.9,0,0,0,5.6-5.45Z" style="fill:#eb9481"></path><path d="M160.35,189a1.92,1.92,0,0,1,.6-1.69,5.38,5.38,0,0,1,1.54-1,21,21,0,0,1,3.62-1.18c2.5-.63,5-1.08,7.59-1.73a31.11,31.11,0,0,0-7.8.87,14.59,14.59,0,0,0-3.73,1.43,5,5,0,0,0-1.56,1.34A2,2,0,0,0,160.35,189Z" style="fill:#263238"></path><path d="M137.38,187.58c1.82-.45,3.62-1,5.41-1.48s3.58-1.07,5.36-1.61l5.34-1.67c1.78-.56,3.56-1.11,5.36-1.65a43.44,43.44,0,0,0-5.54,1c-1.83.42-3.63.94-5.42,1.48s-3.56,1.15-5.31,1.81S139.08,186.79,137.38,187.58Z" style="fill:#263238"></path><path d="M154.57,176.75a35.08,35.08,0,0,0-5.11.7,47.62,47.62,0,0,0-5,1.29,43.25,43.25,0,0,0-4.84,1.81,36.79,36.79,0,0,0-4.59,2.36c1.63-.56,3.21-1.19,4.83-1.73s3.23-1.09,4.86-1.59,3.26-1,4.9-1.48S152.91,177.2,154.57,176.75Z" style="fill:#263238"></path><path d="M152,172.52a34.06,34.06,0,0,0-15.62,5.34c2.62-.93,5.17-1.92,7.77-2.79S149.32,173.37,152,172.52Z" style="fill:#263238"></path><path d="M212.92,111.17a141.92,141.92,0,0,1,3.58-16.71,144.41,144.41,0,0,1-3.58,16.71Z" style="fill:#263238"></path><path d="M217,96.77a4.49,4.49,0,0,1-1.64,3.06A9.44,9.44,0,0,1,217,96.77Z" style="fill:#263238"></path><path d="M217.18,80.41c.39,1,6.37,7.29,11.2,6.43,1.58-.29.42-9,.42-9l.06-.66L229.7,68l-11.41-5.39-1.64-.7s-.06,2.54-.11,5.71c0,.14,0,.29,0,.45s0,.35,0,.51c0,.47,0,1,0,1.44s0,.72,0,1.1,0,.76,0,1.15A60.12,60.12,0,0,0,217.18,80.41Z" style="fill:#eb9481"></path><path d="M216.54,67.62a18.59,18.59,0,0,0,12.32,9.61L229.7,68l-11.41-5.39-1.64-.7S216.59,64.45,216.54,67.62Z" style="fill:#263238"></path><path d="M240.53,52C245,67.61,236.1,72,232.73,73c-3.06.87-13.6,3.43-19.64-11.67s-.16-22.11,6.74-24.46S236.09,36.33,240.53,52Z" style="fill:#eb9481"></path><path d="M235.22,48.68a10.84,10.84,0,0,1-1.14,0,1.87,1.87,0,0,1-1.16-.21.58.58,0,0,1-.15-.7,1.44,1.44,0,0,1,1.32-.64,2.15,2.15,0,0,1,1.47.45A.62.62,0,0,1,235.22,48.68Z" style="fill:#263238"></path><path d="M224.21,53.35c.32-.21.59-.46.89-.7a1.87,1.87,0,0,0,.78-.89.59.59,0,0,0-.32-.64,1.46,1.46,0,0,0-1.44.33,2.12,2.12,0,0,0-.86,1.27A.62.62,0,0,0,224.21,53.35Z" style="fill:#263238"></path><path d="M227.4,55.29s-.07.07-.06.12c.3,1.08.46,2.37-.43,3,0,0,0,.07,0,.06C228.09,58,227.86,56.27,227.4,55.29Z" style="fill:#263238"></path><path d="M226.15,54.39c-1.79.3-1.06,3.84.59,3.57S227.65,54.14,226.15,54.39Z" style="fill:#263238"></path><path d="M225.49,54.72c-.27.26-.5.68-.87.79s-.82-.17-1.18-.47c0,0-.06,0-.05.05.13.68.53,1.33,1.28,1.28s1-.74,1.07-1.46C225.75,54.78,225.6,54.61,225.49,54.72Z" style="fill:#263238"></path><path d="M233.66,53.41s.1,0,.1.08c.18,1.11.58,2.35,1.65,2.52,0,0,0,.06,0,.06C234.16,56.14,233.65,54.49,233.66,53.41Z" style="fill:#263238"></path><path d="M234.42,52.07c1.74-.48,2.58,3,1,3.49S233,52.47,234.42,52.07Z" style="fill:#263238"></path><path d="M235.21,52.13c.32.12.68.39,1,.34s.59-.52.75-.94c0,0,.05,0,.06,0,.18.66.13,1.42-.49,1.7s-1.13-.22-1.45-.85C235,52.29,235.08,52.08,235.21,52.13Z" style="fill:#263238"></path><path d="M229.68,63.94c.31.21.63.53,1,.5a2.89,2.89,0,0,0,1.15-.47s.08,0,.06,0a1.54,1.54,0,0,1-1.31.83,1.2,1.2,0,0,1-1-.85C229.55,63.94,229.64,63.9,229.68,63.94Z" style="fill:#263238"></path><path d="M233.41,59s.58,1.59.74,2.36c0,.08-.16.15-.42.22,0,0,0,0,0,0a3.75,3.75,0,0,1-3.86-.6.08.08,0,0,1,.09-.13,5.72,5.72,0,0,0,3.56.23c0-.22-1.08-2.68-1-2.72a6.71,6.71,0,0,1,1.84,0c-1.11-3.34-2.75-6.48-3.81-9.83a.11.11,0,0,1,.19-.09,56.47,56.47,0,0,1,4.55,10.41C235.46,59.28,233.75,59.05,233.41,59Z" style="fill:#263238"></path><path d="M233.54,61.22a4.53,4.53,0,0,1-1.36,1.87,2,2,0,0,1-1.18.43c-.93,0-1.19-.76-1.23-1.49a5.06,5.06,0,0,1,.09-1.16A5.89,5.89,0,0,0,233.54,61.22Z" style="fill:#263238"></path><path d="M232.18,63.09a2,2,0,0,1-1.18.43c-.93,0-1.19-.76-1.23-1.49A2.12,2.12,0,0,1,232.18,63.09Z" style="fill:#ff9bbc"></path><path d="M214.31,61.45c2.94-.13,1.87-7.27,1.87-7.27S228.11,50,227.44,39.81a17.45,17.45,0,0,0,11,6.4S235.24,35.59,226.18,35c0,0-10.15-1.74-15.24,7.83C205.72,52.59,212.33,61.53,214.31,61.45Z" style="fill:#263238"></path><path d="M227.35,39.06a11.09,11.09,0,0,1,.24,4.66A11.46,11.46,0,0,1,226,48.16a9.37,9.37,0,0,1-.68,1l-.36.48c-.13.15-.27.29-.41.43s-.55.57-.84.84-.62.49-.93.73c-.16.12-.31.25-.47.36l-.5.3-1,.6c-.71.33-1.43.63-2.15.91.65-.43,1.34-.78,2-1.21l.93-.67.47-.33.42-.38.85-.76c.27-.27.51-.56.76-.84l.38-.41.34-.46a10.1,10.1,0,0,0,.63-.93,13,13,0,0,0,1.7-4.16,14.3,14.3,0,0,0,.32-2.26A13.74,13.74,0,0,0,227.35,39.06Z" style="fill:#263238"></path><path d="M215.92,61.82s-4.44-4.32-6.47-2.64,2,8.4,4.84,8.88a2.76,2.76,0,0,0,3.34-2.15Z" style="fill:#eb9481"></path><path d="M210.65,61.08s0,.06,0,.07c2,.4,3.32,1.94,4.35,3.59a1.52,1.52,0,0,0-2.31,0s0,.11.07.09a1.69,1.69,0,0,1,1.94.22,8.5,8.5,0,0,1,1.16,1.31c.12.15.4,0,.3-.17l0,0C215.73,63.79,213.25,60.83,210.65,61.08Z" style="fill:#263238"></path></g><g id="freepik--Lemon--inject-6"><path d="M175.07,353.49,160,473.25a108.15,108.15,0,0,0,31.76,2c13.75-1.23,23.77-2.89,29.54-7.33,3.42-2.63,13.11-13.1,16.22-15.1s12.66-4.15,13.77-9.3-7.11-11.58-8-15.14-7.77-43.53-24-56.64S182,355,175.07,353.49Z" style="fill:#E4125D"></path><g style="mix-blend-mode:multiply;opacity:0.1"><path d="M223.54,400.27a1.65,1.65,0,1,0,1.65-1.65A1.65,1.65,0,0,0,223.54,400.27Z"></path><path d="M198,391.24a1.65,1.65,0,1,0,1.65-1.65A1.65,1.65,0,0,0,198,391.24Z"></path><path d="M182.26,464.75a1.65,1.65,0,1,0-.3-2.32A1.65,1.65,0,0,0,182.26,464.75Z"></path><path d="M245.88,440.63a1.65,1.65,0,1,0,1.65-1.65A1.65,1.65,0,0,0,245.88,440.63Z"></path><path d="M221,417.31a2.24,2.24,0,1,0,2.24-2.23A2.23,2.23,0,0,0,221,417.31Z"></path><path d="M190.57,470.56a2.23,2.23,0,1,0-.41-3.14A2.23,2.23,0,0,0,190.57,470.56Z"></path><path d="M217.67,413a1,1,0,1,0,1-1A1,1,0,0,0,217.67,413Z"></path><circle cx="226.97" cy="439.19" r="0.97"></circle><path d="M174,418.86a1,1,0,1,0,1-1A1,1,0,0,0,174,418.86Z"></path><path d="M200.33,367.28a1,1,0,1,0,1-1A1,1,0,0,0,200.33,367.28Z"></path><path d="M225.87,455.14a1,1,0,1,0,1-1A1,1,0,0,0,225.87,455.14Z"></path></g><path d="M251.26,443.49c-1.11,5.14-10.66,7.29-13.77,9.29s-12.8,12.47-16.22,15.1c-5.77,4.44-15.8,6.09-29.54,7.33a108.15,108.15,0,0,1-31.76-2l3.25-25.85c11,3.63,42.79,13.72,51.78,12,10.94-2.13,16.65-9.87,20.23-11.17s12.49-1.88,13.94-3.93,1-6.14-1.24-9C250,437.94,251.82,440.88,251.26,443.49Z" style="opacity:0.1"></path><path d="M175.07,353.49c13.53,1.33,37.78,21.1,37.76,60.19,0,33.55-25.54,62.64-55.75,59.31s-39.76-32.65-36.87-64.86S143.53,350.38,175.07,353.49Z" style="fill:#E4125D"></path><path d="M175.07,353.49c13.53,1.33,37.78,21.1,37.76,60.19,0,33.55-25.54,62.64-55.75,59.31s-39.76-32.65-36.87-64.86S143.53,350.38,175.07,353.49Z" style="fill:#fff;opacity:0.5"></path><g style="opacity:0.5"><path d="M163.41,421.69c-3,1.53-.52,18.4-.34,24s-1.31,22.73,3.38,22.82,14.75-7.47,17.7-9.89,7.55-7.38,7.37-11.46S169.75,418.48,163.41,421.69Z" style="fill:#E4125D"></path><path d="M167.32,414.06c-.51,3.95,9.19,9.63,12.49,11.54s11.89,8.24,16.57,5.72,6.94-11.47,7-20.18-.69-18.08-5.46-17.73-11.28,7-14.84,8.76S167.84,410,167.32,414.06Z" style="fill:#E4125D"></path><path d="M164.19,407.9c2.46,1.45,8.94-4.86,11.11-7.12s20.3-12.32,21-18.39S180.59,360.7,175.39,363s-6.94,17.09-7.47,20.82S160.81,405.9,164.19,407.9Z" style="fill:#E4125D"></path><path d="M157.69,406.77c2.43-.39,5-14.49,5.54-20.56s5.39-17.79,3.05-21.87-8.82-3.83-16.36-.36-9.59,9.3-8.72,11.47,6.16,10.41,6.77,13.36S154.48,407.29,157.69,406.77Z" style="fill:#E4125D"></path><path d="M152.91,411.63c.8-1.81-4.94-14.32-7.2-17.79s-7.64-16.12-10.85-15.25-6.82,12-7.6,16.16-2.26,11.14-1,13.36c.87,1.52,11.73,2.56,13.9,3.52S152,413.8,152.91,411.63Z" style="fill:#E4125D"></path><path d="M156.19,423.12c-3.74-.66-10.13,15.06-11.6,17.14s-9.46,8-9.72,13,7,7.39,9.45,9.54c2.24,1.95,9.43,5.9,11.43,2.95s1.16-20.65,1.33-23S160,423.79,156.19,423.12Z" style="fill:#E4125D"></path><path d="M152,418.31c.63,2.79-4.69,9-6.68,11.71s-11.78,18-15.85,14.82-6.7-22.89-3.93-26.27S151.35,415.62,152,418.31Z" style="fill:#E4125D"></path></g><path d="M203.42,364.81s12.81,5.78,19.8,13.74,12.59,31.73,12.59,31.73-12.8-27.67-16-30.92S203.42,364.81,203.42,364.81Z" style="fill:#fff;opacity:0.5"></path><path d="M140.86,425.72c.55.71-3.21,6.31-5.07,3.87S140.32,425,140.86,425.72Z" style="fill:#fff;opacity:0.5"></path><path d="M183.91,414.16c.05-.89,6.53-2.77,6.38.3S183.87,415.06,183.91,414.16Z" style="fill:#fff;opacity:0.5"></path><path d="M177.25,390.1c-.6-.67,2.64-6.58,4.72-4.32S177.86,390.76,177.25,390.1Z" style="fill:#fff;opacity:0.5"></path><path d="M145,406.62c-.57.69-6.88-1.71-4.92-4.08S145.52,405.94,145,406.62Z" style="fill:#fff;opacity:0.5"></path><path d="M168.62,396.54c-.88-.2-1.61-6.9,1.38-6.24S169.49,396.73,168.62,396.54Z" style="fill:#fff;opacity:0.5"></path><path d="M170.08,434.1c.8-.41,5.63,4.3,2.89,5.69S169.28,434.51,170.08,434.1Z" style="fill:#fff;opacity:0.5"></path><path d="M169.3,447.88c.9,0,2.95,6.44-.12,6.38S168.41,447.86,169.3,447.88Z" style="fill:#fff;opacity:0.5"></path><path d="M153.51,386.12c-.88.15-4.13-5.77-1.1-6.3S154.39,386,153.51,386.12Z" style="fill:#fff;opacity:0.5"></path><path d="M54.26,450.41a54.89,54.89,0,1,0,92-59.92l-3.62,2.35L102.48,419l-.1.08-1.92,1.24,0,0-.18.12,0,0-.16.11-.07,0-3,2L57.86,448.05Z" style="fill:#E4125D"></path><path d="M57.86,448.05a50.58,50.58,0,1,0,84.77-55.21L102.48,419l-.1.08-1.92,1.24,0,0-.18.12,0,0-.16.11-.07,0-3,2Z" style="fill:#fff;opacity:0.5"></path><path d="M100.46,420.31a1.41,1.41,0,0,1-.1.35v0h0c.12-.12.85-.7,2-1.61Z" style="fill:#E4125D"></path><path d="M137.88,400.41c-3.29,1-37.52,20.26-37.52,20.26s39.14,4.64,42.57,4.3,4.54-7.43,3.3-13.48S141.17,399.41,137.88,400.41Z" style="fill:#E4125D;opacity:0.5"></path><path d="M141.37,432.89c-3-1.62-41-12.22-41-12.22s24.52,30.89,27.2,33.06,8.49-2,11.89-7.15S144.42,434.5,141.37,432.89Z" style="fill:#E4125D;opacity:0.5"></path><path d="M120.84,458.21c-1-3.28-20.48-37.54-20.48-37.54s-4.46,39-4.1,42.46,7.46,4.57,13.51,3.36S121.86,461.5,120.84,458.21Z" style="fill:#E4125D;opacity:0.5"></path><path d="M88.31,461.55c1.6-3,12-40.88,12-40.88s-30.83,24.33-33,27,2.07,8.48,7.22,11.9S86.71,464.58,88.31,461.55Z" style="fill:#E4125D;opacity:0.5"></path><path d="M97,422.6l3.39-1.91s0,0,0,0-.18,0-.36-.05Z" style="fill:#E4125D"></path><path d="M100,420.59a1.7,1.7,0,0,1,.29.09s0,0,0,0h0v0h0s-.07-.09-.15-.17Z" style="fill:#E4125D"></path><path d="M100.23,420.46l.11.19h0c0-.06,0-.17,0-.32Z" style="fill:#E4125D"></path><path d="M92.7,429.68c.7.57-1.63,6.9-4,5S92,429.12,92.7,429.68Z" style="fill:#fff;opacity:0.5"></path><path d="M89.22,443.29c.86.25,1.17,7-1.77,6.14S88.36,443,89.22,443.29Z" style="fill:#fff;opacity:0.5"></path><path d="M110.77,429.2c.56-.7,6.9,1.61,5,4S110.21,429.9,110.77,429.2Z" style="fill:#fff;opacity:0.5"></path><path d="M120.38,417.74c-.3-.85,5-5,6-2.13S120.67,418.58,120.38,417.74Z" style="fill:#fff;opacity:0.5"></path><path d="M105.8,445c.85-.27,4.85,5.16,1.92,6.09S105,445.25,105.8,445Z" style="fill:#fff;opacity:0.5"></path></g></svg>
